HIERARCHY
ROOT Hips
{
  OFFSET 0 89.5177 0.535
  CHANNELS 6 Xposition Yposition Zposition Zrotation Xrotation Yrotation
  JOINT Spine
  {
    OFFSET 12.0259 -0.162855 1.69034e-005
    CHANNELS 3 Zrotation Xrotation Yrotation
    JOINT Spine1
    {
      OFFSET 15.3169 -0.0121922 0
      CHANNELS 3 Zrotation Xrotation Yrotation
      JOINT Spine2
      {
        OFFSET 15.3176 -0.0121908 0
        CHANNELS 3 Zrotation Xrotation Yrotation
        JOINT Neck
        {
          OFFSET 19.9142 1.56338 0
          CHANNELS 3 Zrotation Xrotation Yrotation
          JOINT Head
          {
            OFFSET 6.92651 0 0
            CHANNELS 3 Zrotation Xrotation Yrotation
            End Site
            {
              OFFSET 20.7666 0 0
            }
          }
          JOINT LeftShoulder
          {
            OFFSET -6.20654 0.708824 7.28219
            CHANNELS 3 Zrotation Xrotation Yrotation
            JOINT LeftArm
            {
              OFFSET 14.108 0 -1.52588e-005
              CHANNELS 3 Zrotation Xrotation Yrotation
              JOINT LeftForeArm
              {
                OFFSET 28.5802 0 0
                CHANNELS 3 Zrotation Xrotation Yrotation
                JOINT LeftHand
                {
                  OFFSET 27.092 0 0
                  CHANNELS 3 Zrotation Xrotation Yrotation
                  End Site
                  {
                    OFFSET 9.55928 -0.186424 0.145352
                  }
                }
              }
            }
          }
          JOINT RightShoulder
          {
            OFFSET -6.20654 0.708866 -7.28218
            CHANNELS 3 Zrotation Xrotation Yrotation
            JOINT RightArm
            {
              OFFSET 14.108 0 1.52588e-005
              CHANNELS 3 Zrotation Xrotation Yrotation
              JOINT RightForeArm
              {
                OFFSET 28.5802 0 0
                CHANNELS 3 Zrotation Xrotation Yrotation
                JOINT RightHand
                {
                  OFFSET 27.092 0 0
                  CHANNELS 3 Zrotation Xrotation Yrotation
                  End Site
                  {
                    OFFSET 9.55929 -0.186417 -0.145354
                  }
                }
              }
            }
          }
        }
      }
    }
  }
  JOINT LeftUpLeg
  {
    OFFSET 0.005 -0.535 8.837
    CHANNELS 3 Zrotation Xrotation Yrotation
    JOINT LeftLeg
    {
      OFFSET 39.9035 0 0
      CHANNELS 3 Zrotation Xrotation Yrotation
      JOINT LeftFoot
      {
        OFFSET 39.6689 0 0
        CHANNELS 3 Zrotation Xrotation Yrotation
        JOINT LeftToe
        {
          OFFSET 10.1624 13.6296 0
          CHANNELS 3 Zrotation Xrotation Yrotation
          End Site
          {
            OFFSET 8.38147 0 0
          }
        }
      }
    }
  }
  JOINT RightUpLeg
  {
    OFFSET 0.005 -0.535 -8.837
    CHANNELS 3 Zrotation Xrotation Yrotation
    JOINT RightLeg
    {
      OFFSET 39.9035 0 0
      CHANNELS 3 Zrotation Xrotation Yrotation
      JOINT RightFoot
      {
        OFFSET 39.6689 0 0
        CHANNELS 3 Zrotation Xrotation Yrotation
        JOINT RightToe
        {
          OFFSET 10.1624 13.6296 0
          CHANNELS 3 Zrotation Xrotation Yrotation
          End Site
          {
            OFFSET 8.38147 0 0
          }
        }
      }
    }
  }
}
MOTION
Frames:	7
Frame Time:	0.0333333
555.413 88.4037 38.1983 99.4051 19.6642 -0.594954 0.917767 -1.41704 -0.639801 1.82049 -2.84359 -1.25723 1.82049 -2.84359 -1.25724 -8.3043e-012 -9.0191e-006 -5.27751e-005 10.5914 -8.75854 5.61235 -173.405 -22.8761 -73.4355 -21.2341 -6.45243 60.8411 -19.954 -4.77083e-015 -3.18055e-015 -22.605 -45.8339 -24.7038 -176.558 13.1205 75.1591 -15.0465 -5.92789 -61.0081 -26.1274 -3.18055e-015 -3.18055e-015 -85.4382 77.8489 88.7419 -15.7134 7.11717 -176.981 -19.2653 0 -5.96354e-016 16.263 6.435 -9.03446 90 -1.19271e-015 -3.18055e-015 -22.0815 -5.84038 -177.805 -25.8387 -3.18056e-015 1.59028e-015 22.182 -6.54419 -4.78213 90 -3.97569e-016 3.18055e-015 
555.462 88.4036 38.4355 99.54 19.3978 -0.623238 0.888395 -1.4351 -0.556691 1.76364 -2.87813 -1.09141 1.76364 -2.87813 -1.09141 -8.30907e-012 -9.0191e-006 -5.27751e-005 10.9628 -8.74617 6.24444 -173.357 -23.0012 -73.4034 -25.0725 -5.22235 62.0261 -21.8215 -1.59028e-015 -1.59028e-015 -22.1027 -46.26 -24.2727 -176.527 13.2589 75.1777 -15.9195 -5.8066 -60.9142 -26.5853 0 1.59028e-015 -84.7245 77.7554 88.0244 -15.82 7.26498 -177.116 -19.3762 -3.18055e-015 -3.57812e-015 16.359 6.32438 -8.83994 90 3.97569e-016 -0 -22.2788 -5.74938 -177.93 -25.9394 3.18056e-015 2.38542e-015 22.2039 -6.66647 -4.60026 90 -7.95139e-016 3.18055e-015 
555.486 88.4123 38.6581 99.5735 19.0453 -0.622583 0.878565 -1.45596 -0.477104 1.74582 -2.91855 -0.932105 1.74582 -2.91855 -0.932115 -8.30579e-012 -9.0191e-006 -5.27751e-005 11.055 -8.61872 6.74227 -173.303 -23.132 -73.3576 -28.6162 -4.56463 63.182 -23.5697 -3.97569e-015 -1.59028e-015 -21.7149 -46.8958 -23.9927 -176.517 13.3461 75.2301 -16.4728 -5.67774 -60.9001 -27.1517 3.18055e-015 1.59028e-015 -85.4362 77.7875 88.749 -15.8296 7.59433 -177.181 -19.4959 -3.18055e-015 -1.19271e-015 16.4969 6.28365 -8.7649 90 7.95139e-016 3.18055e-015 -22.3395 -5.63979 -178.019 -25.9936 -1.59028e-015 -2.38542e-015 22.2762 -6.85865 -4.40583 90 1.19271e-015 -3.18055e-015 
555.504 88.4138 38.8897 99.7601 18.6375 -0.663733 0.855002 -1.47649 -0.400235 1.70052 -2.95828 -0.778607 1.70052 -2.95828 -0.778616 -8.3037e-012 -9.0191e-006 -5.27751e-005 10.6325 -8.45115 7.10178 -173.272 -23.2324 -73.3503 -32.1317 -4.13244 64.2243 -25.308 -7.95139e-016 1.59028e-015 -21.8033 -47.1402 -24.1144 -176.529 13.3848 75.319 -16.5445 -5.40009 -61.0527 -27.6466 0 3.18055e-015 -85.4353 77.3319 88.8271 -15.9495 7.87901 -177.266 -19.6048 3.18055e-015 -1.19271e-015 16.6892 6.17332 -8.59142 90 -3.97569e-016 -3.18055e-015 -22.5727 -5.55629 -178.121 -26.1231 1.59028e-015 -0 22.4627 -7.1115 -4.18212 90 -3.97569e-016 -0 
555.455 88.4088 39.0907 99.842 17.9208 -0.631841 0.899217 -1.44409 -0.342961 1.79063 -2.8929 -0.663359 1.79063 -2.8929 -0.663368 -8.3051e-012 -9.0191e-006 -5.27751e-005 9.44883 -8.08944 7.43735 -173.361 -23.2852 -73.5942 -35.2883 -4.2431 65.2771 -26.9712 -7.95139e-016 1.59028e-015 -21.8649 -47.8836 -24.2928 -176.555 13.3542 75.3925 -16.4371 -5.02521 -61.2036 -28.0745 0 -0 -86.0648 77.1221 89.5104 -15.9325 8.56315 -177.249 -19.7269 6.36111e-015 3.97569e-016 16.9363 6.14388 -8.50717 90 -3.97569e-016 3.18055e-015 -22.6896 -5.1193 -178.086 -26.2181 -3.18056e-015 -0 22.5678 -7.31932 -4.01254 90 -1.59028e-015 -3.18055e-015 
555.408 88.4076 39.2728 99.7706 16.963 -0.508844 0.984761 -1.38872 -0.299305 1.96312 -2.78188 -0.574779 1.96312 -2.78188 -0.574788 -8.30838e-012 -9.0191e-006 -5.27751e-005 8.21964 -7.60999 7.88711 -173.47 -23.2453 -73.8249 -38.3039 -4.39057 65.9695 -28.5722 0 -0 -22.1627 -48.6191 -24.7014 -176.598 13.2581 75.469 -16.5601 -4.82783 -61.3266 -28.3421 -3.18055e-015 3.18055e-015 -86.8041 76.8332 90.3222 -15.7262 9.41996 -177.216 -19.7672 -3.18055e-015 -1.59028e-015 17.0633 6.04111 -8.46952 90 -7.95139e-016 -3.18055e-015 -22.6756 -4.35225 -177.967 -26.2598 -1.59028e-015 -2.38542e-015 22.5533 -7.44092 -3.87804 90 0 9.54166e-015 
555.56 88.3924 39.5195 99.9196 17.0869 -0.701729 1.02093 -1.57417 -0.188413 2.03785 -3.15097 -0.348764 2.03785 -3.15097 -0.348774 -8.30833e-012 -9.0191e-006 -5.27751e-005 7.39736 -6.98493 8.19779 -173.624 -23.0973 -74.1011 -41.1224 -4.43672 66.341 -30.0828 0 7.95139e-016 -21.4235 -49.5947 -24.103 -176.664 13.1337 75.6107 -16.6567 -4.57906 -61.4879 -28.2297 -3.18055e-015 -3.18055e-015 -86.396 76.8488 89.898 -15.9986 8.66537 -177.409 -19.9699 -3.18055e-015 -1.19271e-015 16.9581 5.51959 -7.99706 90 3.97569e-016 -0 -22.9336 -5.0591 -178.202 -26.4452 0 -1.19271e-015 22.7744 -7.93841 -3.58138 90 1.19271e-015 -0 
